<svg height="512" viewBox="0 0 512 512" width="512" xmlns="http://www.w3.org/2000/svg"><g id="Upload-2" data-name="Upload"><path d="m456 144h-400v-64a16 16 0 0 0 16-16h120l40 32h208a16 16 0 0 0 16 16z" fill="#57a4ff"/><path d="m256 208a88 88 0 1 0 88 88 88 88 0 0 0 -88-88zm24 80v48h-48v-48h-24l48-48 48 48z" fill="#57a4ff"/><g fill="#004fac"><path d="m480 136h-16v-24a24.027 24.027 0 0 0 -24-24h-205.194l-37.806-30.247a8 8 0 0 0 -5-1.753h-120a24.027 24.027 0 0 0 -24 24v56h-16a24.027 24.027 0 0 0 -24 24v272a24.027 24.027 0 0 0 24 24h448a24.027 24.027 0 0 0 24-24v-272a24.027 24.027 0 0 0 -24-24zm-416-56a8.009 8.009 0 0 1 8-8h117.194l37.806 30.247a8 8 0 0 0 5 1.753h208a8.009 8.009 0 0 1 8 8v24h-384zm424 352a8.009 8.009 0 0 1 -8 8h-448a8.009 8.009 0 0 1 -8-8v-272a8.009 8.009 0 0 1 8-8h448a8.009 8.009 0 0 1 8 8z"/><path d="m120 416h-80a8 8 0 0 0 0 16h80a8 8 0 0 0 0-16z"/><path d="m152 416h-8a8 8 0 0 0 0 16h8a8 8 0 0 0 0-16z"/><path d="m256 200a96 96 0 1 0 96 96 96.108 96.108 0 0 0 -96-96zm0 176a80 80 0 1 1 80-80 80.091 80.091 0 0 1 -80 80z"/><path d="m261.657 234.343a8 8 0 0 0 -11.314 0l-48 48a8 8 0 0 0 5.657 13.657h16v40a8 8 0 0 0 8 8h48a8 8 0 0 0 8-8v-40h16a8 8 0 0 0 5.657-13.657zm18.343 45.657a8 8 0 0 0 -8 8v40h-32v-40a8 8 0 0 0 -8-8h-4.687l28.687-28.687 28.687 28.687z"/></g></g></svg>